<svg version="1.2" xmlns="http://www.w3.org/2000/svg" viewBox="0 0 800 800" width="800" height="800">
	<style>
		.s0 { fill: #24273a } 
		.s1 { fill: #7287fd } 
	</style>
	<g id="SVGRepo_bgCarrier">
	</g>
	<g id="SVGRepo_tracerCarrier">
	</g>
	<g id="SVGRepo_iconCarrier">
		<path id="Shape 3" fill-rule="evenodd" class="s0" d="m399.5 789c-215.39 0-389.5-174.11-389.5-389.5 0-215.39 174.11-389.5 389.5-389.5 215.39 0 389.5 174.11 389.5 389.5 0 215.39-174.11 389.5-389.5 389.5z"/>
		<path class="s1" d="m250 166.67c-31.15 0-46.73 0-58.33 6.7-7.6 4.38-13.92 10.7-18.3 18.3-6.7 11.6-6.7 27.18-6.7 58.33v125h-100c-13.81 0-25 11.19-25 25 0 13.81 11.19 25 25 25h100v125c0 31.15 0 46.73 6.7 58.33 4.38 7.6 10.7 13.92 18.3 18.3 11.6 6.7 27.18 6.7 58.33 6.7 31.15 0 46.73 0 58.33-6.7 7.6-4.38 13.92-10.7 18.3-18.3 6.7-11.6 6.7-27.18 6.7-58.33v-125h133.34v58.33c0 31.16 0 46.73 6.7 58.34 4.38 7.6 10.7 13.91 18.3 18.3 11.6 6.7 27.18 6.7 58.33 6.7 31.15 0 46.73 0 58.33-6.7 7.6-4.39 13.92-10.7 18.3-18.3 6.7-11.61 6.7-27.18 6.7-58.34v-58.33h100c13.81 0 25-11.19 25-25 0-13.81-11.19-25-25-25h-100v-58.33c0-31.16 0-46.73-6.7-58.34-4.38-7.6-10.7-13.91-18.3-18.3-11.6-6.7-27.18-6.7-58.33-6.7-31.15 0-46.73 0-58.33 6.7-7.6 4.39-13.92 10.7-18.3 18.3-6.7 11.61-6.7 27.18-6.7 58.34v58.33h-133.34v-125c0-31.15 0-46.73-6.7-58.33-4.38-7.6-10.7-13.92-18.3-18.3-11.6-6.7-27.18-6.7-58.33-6.7z"/>
	</g>
</svg>